<svg id="visual" viewBox="0 0 960 540" width="960" height="540" xmlns="http://www.w3.org/2000/svg" xmlns:xlink="http://www.w3.org/1999/xlink" version="1.1"><rect x="0" y="0" width="960" height="540" fill="#000000"></rect><path d="M0 336L22.8 337.8C45.7 339.7 91.3 343.3 137 351.8C182.7 360.3 228.3 373.7 274 380.5C319.7 387.3 365.3 387.7 411.2 382.5C457 377.3 503 366.7 548.8 357.3C594.7 348 640.3 340 686 343.2C731.7 346.3 777.3 360.7 823 362C868.7 363.3 914.3 351.7 937.2 345.8L960 340L960 541L937.2 541C914.3 541 868.7 541 823 541C777.3 541 731.7 541 686 541C640.3 541 594.7 541 548.8 541C503 541 457 541 411.2 541C365.3 541 319.7 541 274 541C228.3 541 182.7 541 137 541C91.3 541 45.7 541 22.8 541L0 541Z" fill="#050404"></path><path d="M0 397L22.8 400.5C45.7 404 91.3 411 137 411.7C182.7 412.3 228.3 406.7 274 399.2C319.7 391.7 365.3 382.3 411.2 387.5C457 392.7 503 412.3 548.8 414.3C594.7 416.3 640.3 400.7 686 391.7C731.7 382.7 777.3 380.3 823 385.5C868.7 390.7 914.3 403.3 937.2 409.7L960 416L960 541L937.2 541C914.3 541 868.7 541 823 541C777.3 541 731.7 541 686 541C640.3 541 594.7 541 548.8 541C503 541 457 541 411.2 541C365.3 541 319.7 541 274 541C228.3 541 182.7 541 137 541C91.3 541 45.7 541 22.8 541L0 541Z" fill="#050304"></path><path d="M0 453L22.8 450.5C45.7 448 91.3 443 137 441C182.7 439 228.3 440 274 443.2C319.7 446.3 365.3 451.7 411.2 451.8C457 452 503 447 548.8 437.7C594.7 428.3 640.3 414.7 686 411C731.7 407.3 777.3 413.7 823 412.5C868.7 411.3 914.3 402.7 937.2 398.3L960 394L960 541L937.2 541C914.3 541 868.7 541 823 541C777.3 541 731.7 541 686 541C640.3 541 594.7 541 548.8 541C503 541 457 541 411.2 541C365.3 541 319.7 541 274 541C228.3 541 182.7 541 137 541C91.3 541 45.7 541 22.8 541L0 541Z" fill="#050304"></path><path d="M0 481L22.8 481.7C45.7 482.3 91.3 483.7 137 477.5C182.7 471.3 228.3 457.7 274 450C319.7 442.3 365.3 440.7 411.2 443C457 445.3 503 451.7 548.8 459.8C594.7 468 640.3 478 686 481.7C731.7 485.3 777.3 482.7 823 481.7C868.7 480.7 914.3 481.3 937.2 481.7L960 482L960 541L937.2 541C914.3 541 868.7 541 823 541C777.3 541 731.7 541 686 541C640.3 541 594.7 541 548.8 541C503 541 457 541 411.2 541C365.3 541 319.7 541 274 541C228.3 541 182.7 541 137 541C91.3 541 45.7 541 22.8 541L0 541Z" fill="#040304"></path><path d="M0 486L22.8 490.5C45.7 495 91.3 504 137 504C182.7 504 228.3 495 274 490.3C319.7 485.7 365.3 485.3 411.2 486.3C457 487.3 503 489.7 548.8 493.5C594.7 497.3 640.3 502.7 686 505.5C731.7 508.3 777.3 508.7 823 503.7C868.7 498.7 914.3 488.3 937.2 483.2L960 478L960 541L937.2 541C914.3 541 868.7 541 823 541C777.3 541 731.7 541 686 541C640.3 541 594.7 541 548.8 541C503 541 457 541 411.2 541C365.3 541 319.7 541 274 541C228.3 541 182.7 541 137 541C91.3 541 45.7 541 22.8 541L0 541Z" fill="#040304"></path></svg>